<svg width="512" height="512" xmlns="http://www.w3.org/2000/svg">
  <g transform="translate(0.000000,500.000000) scale(0.100000,-0.100000)" fill="#fb2c36" stroke="none">
    <path d="M765 4989 c-210 -31 -433 -158 -565 -322 -65 -80 -143 -238 -172 -347 l-23 -85 0 -1735 0 -1735 23 -85 c87 -323 331 -567 652 -652 l85 -23 1735 0 1735 0 85 23 c319 85 561 325 652 647 l23 80 3 1690 c2 1203 0 1713 -8 1770 -52 369 -302 654 -665 757 l-80 23 -1710 1 c-941 1 -1737 -2 -1770 -7z m2425 -1624 l0 -195 -405 0 -405 0 2 -242 3 -243 378 -3 377 -2 -2 -193 -3 -192 -377 -3 -378 -2 0 -285 0 -285 405 0 405 0 0 -195 0 -195 -645 0 -645 0 0 1115 0 1115 645 0 645 0 0 -195z"/>
  </g>
</svg>

